<svg width="24" height="24" viewBox="0 0 24 24" fill="none" xmlns="http://www.w3.org/2000/svg">
<path d="M2 12C2 17.523 6.477 22 12 22C12.648 22 13.25 21.7 13.708 21.242L21.242 13.708C21.7 13.25 22 12.648 22 12C22 6.477 17.523 2 12 2C6.477 2 2 6.477 2 12Z" stroke="black" stroke-opacity="0.8" stroke-width="1.5"/>
<path d="M12 17C10.885 17 9.85 16.63 9 16" stroke="black" stroke-opacity="0.8" stroke-width="1.5" stroke-linecap="round"/>
<path d="M15 12C15.5523 12 16 11.3284 16 10.5C16 9.67157 15.5523 9 15 9C14.4477 9 14 9.67157 14 10.5C14 11.3284 14.4477 12 15 12Z" fill="black" fill-opacity="0.8"/>
<path d="M9 12C9.55228 12 10 11.3284 10 10.5C10 9.67157 9.55228 9 9 9C8.44772 9 8 9.67157 8 10.5C8 11.3284 8.44772 12 9 12Z" fill="black" fill-opacity="0.8"/>
<path d="M12 22C12 19.207 12 17.81 12.393 16.688C12.7403 15.6955 13.3068 14.7939 14.0504 14.0504C14.7939 13.3068 15.6955 12.7403 16.688 12.393C17.811 12 19.208 12 22 12" stroke="black" stroke-opacity="0.8" stroke-width="1.5"/>
</svg>
