<svg width="32" height="31" viewBox="0 0 32 31" fill="none" xmlns="http://www.w3.org/2000/svg">
<path d="M18.243 28.2206C19.9134 27.926 21.5095 27.3054 22.9401 26.394C24.3707 25.4826 25.6078 24.2983 26.5807 22.9089C27.5537 21.5194 28.2434 19.9519 28.6105 18.2958C28.9776 16.6398 29.015 14.9277 28.7205 13.2572C28.4259 11.5867 27.8052 9.99064 26.8938 8.56004C25.9824 7.12945 24.7982 5.89237 23.4087 4.91945C22.0192 3.94652 20.4517 3.25681 18.7957 2.88967C17.1397 2.52254 15.4275 2.48518 13.7571 2.77973C12.0866 3.07428 10.4905 3.69497 9.0599 4.60636C7.6293 5.51775 6.39223 6.70199 5.41931 8.09147C4.44638 9.48095 3.75666 11.0485 3.38953 12.7045C3.0224 14.3605 2.98504 16.0726 3.27959 17.7431C3.57414 19.4136 4.19483 21.0097 5.10622 22.4403C6.01761 23.8709 7.20185 25.108 8.59133 26.0809C9.98081 27.0538 11.5483 27.7435 13.2043 28.1107C14.8604 28.4778 16.5725 28.5151 18.243 28.2206L18.243 28.2206Z" stroke="black" stroke-width="2"/>
<path d="M16 15.5L16 23.25" stroke="black" stroke-width="2" stroke-linecap="square"/>
<path d="M16 9.0415L16 7.74984" stroke="black" stroke-width="2" stroke-linecap="square"/>
</svg>
