<svg width="90" height="22" viewBox="0 0 33 33" fill="none" xmlns="http://www.w3.org/2000/svg">
<rect y="5" width="23" height="30" fill="white"/>
<path d="M16.7159 21.0909C16.6307 20.3712 16.285 19.8125 15.679 19.4148C15.0729 19.017 14.3295 18.8182 13.4489 18.8182C12.8049 18.8182 12.2415 18.9223 11.7585 19.1307C11.2803 19.339 10.9063 19.6255 10.6364 19.9901C10.3712 20.3546 10.2386 20.7689 10.2386 21.233C10.2386 21.6212 10.331 21.955 10.5156 22.2344C10.705 22.509 10.9465 22.7386 11.2401 22.9233C11.5336 23.1032 11.8414 23.2524 12.1634 23.3707C12.4853 23.4844 12.7812 23.5767 13.0511 23.6477L14.5284 24.0455C14.9072 24.1449 15.3286 24.2822 15.7926 24.4574C16.2614 24.6326 16.7088 24.8717 17.1349 25.1747C17.5658 25.473 17.9209 25.8565 18.2003 26.3253C18.4796 26.794 18.6193 27.3693 18.6193 28.0511C18.6193 28.8371 18.4134 29.5473 18.0014 30.1818C17.5942 30.8163 16.9976 31.3205 16.2116 31.6946C15.4304 32.0687 14.4811 32.2557 13.3636 32.2557C12.322 32.2557 11.42 32.0876 10.6577 31.7514C9.90009 31.4152 9.3035 30.9465 8.8679 30.3452C8.43703 29.7438 8.19318 29.0455 8.13636 28.25H9.95455C10.0019 28.7992 10.1866 29.2538 10.5085 29.6136C10.8352 29.9687 11.2472 30.2339 11.7443 30.4091C12.2462 30.5795 12.786 30.6648 13.3636 30.6648C14.036 30.6648 14.6397 30.5559 15.1747 30.3381C15.7098 30.1155 16.1335 29.8078 16.446 29.4148C16.7585 29.017 16.9148 28.553 16.9148 28.0227C16.9148 27.5398 16.7798 27.1468 16.5099 26.8438C16.2401 26.5407 15.8849 26.2945 15.4446 26.1051C15.0043 25.9157 14.5284 25.75 14.017 25.608L12.2273 25.0966C11.0909 24.7699 10.1913 24.3035 9.52841 23.6974C8.86553 23.0914 8.53409 22.2983 8.53409 21.3182C8.53409 20.5038 8.75426 19.7936 9.1946 19.1875C9.63968 18.5767 10.2363 18.1032 10.9844 17.767C11.7372 17.4261 12.5777 17.2557 13.5057 17.2557C14.4432 17.2557 15.2765 17.4238 16.0057 17.7599C16.7348 18.0914 17.3125 18.5459 17.7386 19.1236C18.1695 19.7012 18.3968 20.357 18.4205 21.0909H16.7159Z" fill="#3E35A4"/>
<path d="M16.7159 21.0909L16.2194 21.1497L16.2716 21.5909H16.7159V21.0909ZM15.679 19.4148L15.4046 19.8328L15.4046 19.8328L15.679 19.4148ZM11.7585 19.1307L11.5605 18.6716L11.5588 18.6723L11.7585 19.1307ZM10.6364 19.9901L10.2345 19.6926L10.232 19.696L10.6364 19.9901ZM10.5156 22.2344L10.0984 22.5101L10.104 22.5182L10.5156 22.2344ZM11.2401 22.9233L10.9738 23.3466L10.9788 23.3496L11.2401 22.9233ZM12.1634 23.3707L11.9908 23.8401L11.9969 23.8422L12.1634 23.3707ZM13.0511 23.6477L13.1811 23.1649L13.1784 23.1642L13.0511 23.6477ZM14.5284 24.0455L14.3984 24.5283L14.4015 24.5291L14.5284 24.0455ZM15.7926 24.4574L15.616 24.9252L15.6176 24.9257L15.7926 24.4574ZM17.1349 25.1747L16.8452 25.5822L16.8503 25.5858L17.1349 25.1747ZM18.2003 26.3253L18.6298 26.0693L18.6298 26.0693L18.2003 26.3253ZM18.0014 30.1818L17.5821 29.9095L17.5806 29.9118L18.0014 30.1818ZM16.2116 31.6946L15.9968 31.2431L15.9957 31.2436L16.2116 31.6946ZM10.6577 31.7514L10.4549 32.2084L10.4559 32.2089L10.6577 31.7514ZM8.8679 30.3452L8.46146 30.6364L8.46298 30.6385L8.8679 30.3452ZM8.13636 28.25V27.75H7.59938L7.63763 28.2856L8.13636 28.25ZM9.95455 28.25L10.4527 28.2071L10.4133 27.75H9.95455V28.25ZM10.5085 29.6136L10.1359 29.9471L10.1406 29.9522L10.5085 29.6136ZM11.7443 30.4091L11.5781 30.8807L11.5835 30.8825L11.7443 30.4091ZM15.1747 30.3381L15.3632 30.8012L15.3667 30.7997L15.1747 30.3381ZM16.446 29.4148L16.8374 29.726L16.8392 29.7237L16.446 29.4148ZM16.5099 26.8438L16.8833 26.5112L16.8833 26.5112L16.5099 26.8438ZM15.4446 26.1051L15.247 26.5644L15.247 26.5644L15.4446 26.1051ZM14.017 25.608L13.8797 26.0887L13.8832 26.0897L14.017 25.608ZM12.2273 25.0966L12.0891 25.5771L12.0899 25.5774L12.2273 25.0966ZM9.52841 23.6974L9.19102 24.0665L9.19102 24.0665L9.52841 23.6974ZM9.1946 19.1875L8.7905 18.893L8.7901 18.8936L9.1946 19.1875ZM10.9844 17.767L11.1893 18.2231L11.1906 18.2225L10.9844 17.767ZM16.0057 17.7599L15.7963 18.214L15.7988 18.2151L16.0057 17.7599ZM17.7386 19.1236L17.3363 19.4204L17.3378 19.4225L17.7386 19.1236ZM18.4205 21.0909V21.5909H18.9368L18.9202 21.0748L18.4205 21.0909ZM17.2124 21.0321C17.1098 20.1657 16.6828 19.4755 15.9533 18.9967L15.4046 19.8328C15.8873 20.1495 16.1515 20.5767 16.2194 21.1497L17.2124 21.0321ZM15.9533 18.9967C15.2497 18.535 14.4059 18.3182 13.4489 18.3182V19.3182C14.2532 19.3182 14.8961 19.4991 15.4046 19.8328L15.9533 18.9967ZM13.4489 18.3182C12.7517 18.3182 12.1183 18.4309 11.5605 18.6716L11.9566 19.5898C12.3646 19.4138 12.8582 19.3182 13.4489 19.3182V18.3182ZM11.5588 18.6723C11.0125 18.9103 10.5639 19.2476 10.2345 19.6926L11.0382 20.2875C11.2486 20.0034 11.5481 19.7677 11.9582 19.5891L11.5588 18.6723ZM10.232 19.696C9.90277 20.1487 9.73864 20.6666 9.73864 21.233H10.7386C10.7386 20.8713 10.8397 20.5606 11.0407 20.2841L10.232 19.696ZM9.73864 21.233C9.73864 21.7032 9.85159 22.1365 10.0985 22.5101L10.9327 21.9587C10.8103 21.7735 10.7386 21.5392 10.7386 21.233H9.73864ZM10.104 22.5182C10.3334 22.8509 10.6252 23.1272 10.9738 23.3465L11.5063 22.5001C11.2678 22.3501 11.0766 22.1671 10.9272 21.9505L10.104 22.5182ZM10.9788 23.3496C11.3003 23.5467 11.6378 23.7102 11.9908 23.84L12.3359 22.9014C12.045 22.7945 11.7669 22.6598 11.5013 22.497L10.9788 23.3496ZM11.9969 23.8422C12.3291 23.9595 12.6383 24.0561 12.9239 24.1313L13.1784 23.1642C12.9242 23.0973 12.6416 23.0093 12.3298 22.8992L11.9969 23.8422ZM12.9211 24.1305L14.3984 24.5283L14.6584 23.5626L13.1811 23.1649L12.9211 24.1305ZM14.4015 24.5291C14.7597 24.6231 15.1642 24.7546 15.616 24.9252L15.9692 23.9896C15.493 23.8098 15.0547 23.6667 14.6554 23.5618L14.4015 24.5291ZM15.6176 24.9257C16.0438 25.085 16.4529 25.3032 16.8452 25.5822L17.4247 24.7672C16.9647 24.4401 16.4789 24.1801 15.9677 23.989L15.6176 24.9257ZM16.8503 25.5858C17.2199 25.8417 17.5265 26.1714 17.7708 26.5813L18.6298 26.0693C18.3153 25.5417 17.9117 25.1043 17.4195 24.7636L16.8503 25.5858ZM17.7708 26.5813C17.9938 26.9555 18.1193 27.4372 18.1193 28.0511H19.1193C19.1193 27.3015 18.9655 26.6326 18.6298 26.0693L17.7708 26.5813ZM18.1193 28.0511C18.1193 28.7445 17.9392 29.3594 17.5821 29.9095L18.4208 30.4541C18.8875 29.7353 19.1193 28.9298 19.1193 28.0511H18.1193ZM17.5806 29.9118C17.2312 30.4562 16.7118 30.9028 15.9968 31.2431L16.4265 32.1461C17.2834 31.7383 17.9572 31.1764 18.4222 30.4519L17.5806 29.9118ZM15.9957 31.2436C15.2985 31.5775 14.4272 31.7557 13.3636 31.7557V32.7557C14.5349 32.7557 15.5623 32.5599 16.4276 32.1456L15.9957 31.2436ZM13.3636 31.7557C12.3746 31.7557 11.5444 31.596 10.8594 31.2939L10.4559 32.2089C11.2956 32.5792 12.2693 32.7557 13.3636 32.7557V31.7557ZM10.8605 31.2944C10.1739 30.9897 9.65085 30.5737 9.27282 30.0518L8.46298 30.6385C8.95616 31.3193 9.62625 31.8407 10.4549 32.2084L10.8605 31.2944ZM9.27433 30.0539C8.90143 29.5335 8.68587 28.9252 8.63509 28.2144L7.63763 28.2856C7.7005 29.1657 7.97262 29.9542 8.46146 30.6364L9.27433 30.0539ZM8.13636 28.75H9.95455V27.75H8.13636V28.75ZM9.45639 28.2929C9.51166 28.9341 9.73175 29.4953 10.1359 29.947L10.8811 29.2802C10.6414 29.0122 10.4921 28.6644 10.4527 28.2071L9.45639 28.2929ZM10.1406 29.9522C10.5276 30.3729 11.0111 30.6809 11.5781 30.8807L11.9105 29.9375C11.4832 29.7869 11.1428 29.5646 10.8765 29.2751L10.1406 29.9522ZM11.5835 30.8825C12.1416 31.0721 12.7362 31.1648 13.3636 31.1648V30.1648C12.8358 30.1648 12.3508 30.087 11.9051 29.9357L11.5835 30.8825ZM13.3636 31.1648C14.0902 31.1648 14.7594 31.047 15.3632 30.8012L14.9862 29.875C14.52 30.0647 13.9818 30.1648 13.3636 30.1648V31.1648ZM15.3667 30.7997C15.9677 30.5498 16.4646 30.1948 16.8374 29.726L16.0547 29.1036C15.8024 29.4208 15.4518 29.6813 14.9827 29.8764L15.3667 30.7997ZM16.8392 29.7237C17.2244 29.2334 17.4148 28.6592 17.4148 28.0227H16.4148C16.4148 28.4468 16.2926 28.8007 16.0529 29.1059L16.8392 29.7237ZM17.4148 28.0227C17.4148 27.4417 17.2498 26.9226 16.8833 26.5112L16.1366 27.1763C16.3099 27.3709 16.4148 27.6378 16.4148 28.0227H17.4148ZM16.8833 26.5112C16.5568 26.1446 16.1376 25.8589 15.6422 25.6458L15.247 26.5644C15.6323 26.7301 15.9233 26.9369 16.1366 27.1763L16.8833 26.5112ZM15.6422 25.6458C15.179 25.4466 14.6817 25.2736 14.1509 25.1262L13.8832 26.0897C14.3751 26.2264 14.8295 26.3848 15.247 26.5644L15.6422 25.6458ZM14.1544 25.1272L12.3646 24.6158L12.0899 25.5774L13.8797 26.0887L14.1544 25.1272ZM12.3654 24.6161C11.2807 24.3042 10.4567 23.8687 9.86579 23.3284L9.19102 24.0665C9.9259 24.7383 10.9011 25.2356 12.0891 25.5771L12.3654 24.6161ZM9.86579 23.3284C9.31663 22.8263 9.03409 22.1722 9.03409 21.3182H8.03409C8.03409 22.4244 8.41443 23.3564 9.19102 24.0665L9.86579 23.3284ZM9.03409 21.3182C9.03409 20.5997 9.2263 19.9945 9.59911 19.4814L8.7901 18.8936C8.28222 19.5926 8.03409 20.4079 8.03409 21.3182H9.03409ZM9.5987 19.482C9.98826 18.9474 10.5136 18.5268 11.1893 18.2231L10.7794 17.311C9.95898 17.6797 9.2911 18.2061 8.79051 18.893L9.5987 19.482ZM11.1906 18.2225C11.8711 17.9144 12.64 17.7557 13.5057 17.7557V16.7557C12.5153 16.7557 11.6033 16.9379 10.7781 17.3116L11.1906 18.2225ZM13.5057 17.7557C14.3829 17.7557 15.1429 17.9128 15.7963 18.214L16.215 17.3059C15.4101 16.9348 14.5034 16.7557 13.5057 16.7557V17.7557ZM15.7988 18.2151C16.4595 18.5155 16.9664 18.919 17.3363 19.4204L18.141 18.8268C17.6586 18.1729 17.0102 17.6673 16.2126 17.3048L15.7988 18.2151ZM17.3378 19.4225C17.7064 19.9166 17.9003 20.4732 17.9207 21.107L18.9202 21.0748C18.8933 20.2408 18.6326 19.4859 18.1394 18.8246L17.3378 19.4225ZM18.4205 20.5909H16.7159V21.5909H18.4205V20.5909Z" fill="#3E35A4"/>
<path d="M2.81818 31V7.72727H10.6818C12.5076 7.72727 14 8.05682 15.1591 8.71591C16.3258 9.36742 17.1894 10.25 17.75 11.3636C18.3106 12.4773 18.5909 13.7197 18.5909 15.0909C18.5909 16.4621 18.3106 17.7083 17.75 18.8295C17.197 19.9508 16.3409 20.8447 15.1818 21.5114C14.0227 22.1705 12.5379 22.5 10.7273 22.5H5.09091V20H10.6364C11.8864 20 12.8902 19.7841 13.6477 19.3523C14.4053 18.9205 14.9545 18.3371 15.2955 17.6023C15.6439 16.8598 15.8182 16.0227 15.8182 15.0909C15.8182 14.1591 15.6439 13.3258 15.2955 12.5909C14.9545 11.8561 14.4015 11.2803 13.6364 10.8636C12.8712 10.4394 11.8561 10.2273 10.5909 10.2273H5.63636V31H2.81818Z" fill="#434242"/>
<path d="M2.81818 31H2.31818V31.5H2.81818V31ZM2.81818 7.72727V7.22727H2.31818V7.72727H2.81818ZM15.1591 8.71591L14.9119 9.15057L14.9153 9.15245L15.1591 8.71591ZM17.75 11.3636L17.3034 11.5885L17.3034 11.5885L17.75 11.3636ZM17.75 18.8295L17.3028 18.6059L17.3016 18.6084L17.75 18.8295ZM15.1818 21.5114L15.429 21.946L15.4311 21.9448L15.1818 21.5114ZM5.09091 22.5H4.59091V23H5.09091V22.5ZM5.09091 20V19.5H4.59091V20H5.09091ZM13.6477 19.3523L13.4001 18.9179L13.4001 18.9179L13.6477 19.3523ZM15.2955 17.6023L14.8428 17.3898L14.8419 17.3919L15.2955 17.6023ZM15.2955 12.5909L14.8419 12.8013L14.8437 12.8052L15.2955 12.5909ZM13.6364 10.8636L13.3939 11.3009L13.3972 11.3027L13.6364 10.8636ZM5.63636 10.2273V9.72727H5.13636V10.2273H5.63636ZM5.63636 31V31.5H6.13636V31H5.63636ZM3.31818 31V7.72727H2.31818V31H3.31818ZM2.81818 8.22727H10.6818V7.22727H2.81818V8.22727ZM10.6818 8.22727C12.4515 8.22727 13.8509 8.54724 14.9119 9.15055L15.4062 8.28126C14.1491 7.5664 12.5636 7.22727 10.6818 7.22727V8.22727ZM14.9153 9.15245C16.0013 9.75892 16.791 10.5706 17.3034 11.5885L18.1966 11.1388C17.5878 9.92942 16.6502 8.97593 15.4029 8.27937L14.9153 9.15245ZM17.3034 11.5885C17.8255 12.6256 18.0909 13.7899 18.0909 15.0909H19.0909C19.0909 13.6495 18.7957 12.3289 18.1966 11.1388L17.3034 11.5885ZM18.0909 15.0909C18.0909 16.3919 17.8255 17.5605 17.3028 18.6059L18.1972 19.0532C18.7957 17.8562 19.0909 16.5323 19.0909 15.0909H18.0909ZM17.3016 18.6084C16.7955 19.6344 16.0119 20.4571 14.9325 21.0779L15.4311 21.9448C16.6699 21.2323 17.5984 20.2671 18.1984 19.0507L17.3016 18.6084ZM14.9347 21.0767C13.8731 21.6803 12.481 22 10.7273 22V23C12.5948 23 14.1723 22.6606 15.429 21.946L14.9347 21.0767ZM10.7273 22H5.09091V23H10.7273V22ZM5.59091 22.5V20H4.59091V22.5H5.59091ZM5.09091 20.5H10.6364V19.5H5.09091V20.5ZM10.6364 20.5C11.9378 20.5 13.0366 20.2761 13.8953 19.7867L13.4001 18.9179C12.7437 19.292 11.8349 19.5 10.6364 19.5V20.5ZM13.8953 19.7867C14.7359 19.3075 15.361 18.6491 15.749 17.8127L14.8419 17.3919C14.5481 18.0251 14.0747 18.5334 13.4001 18.9179L13.8953 19.7867ZM15.7481 17.8147C16.1318 16.9973 16.3182 16.0861 16.3182 15.0909H15.3182C15.3182 15.9593 15.1561 16.7224 14.8428 17.3898L15.7481 17.8147ZM16.3182 15.0909C16.3182 14.0958 16.1318 13.1876 15.7472 12.3767L14.8437 12.8052C15.1561 13.4639 15.3182 14.2224 15.3182 15.0909H16.3182ZM15.749 12.3805C15.3595 11.5409 14.7272 10.8884 13.8755 10.4245L13.3972 11.3027C14.0758 11.6723 14.5496 12.1712 14.8419 12.8013L15.749 12.3805ZM13.8788 10.4264C13.0137 9.94668 11.9055 9.72727 10.5909 9.72727V10.7273C11.8066 10.7273 12.7287 10.9321 13.3939 11.3009L13.8788 10.4264ZM10.5909 9.72727H5.63636V10.7273H10.5909V9.72727ZM5.13636 10.2273V31H6.13636V10.2273H5.13636ZM5.63636 30.5H2.81818V31.5H5.63636V30.5Z" fill="#434242"/>
<path d="M10.2543 19.6277C10.2543 19.9906 9.98011 20.2997 9.96667 20.6624C9.95847 20.8837 9.92853 21.1061 9.93072 21.3336C9.93551 21.8319 10.0723 22.3111 10.2184 22.7837C10.2588 22.9145 10.3167 23.0399 10.3542 23.1713C10.3702 23.2274 10.4131 23.2624 10.3821 23.1792C10.3038 22.9686 10.2658 22.6831 10.1464 22.5041" stroke="#3E35A4" stroke-width="0.1" stroke-linecap="round"/>
<path d="M10.0745 19.7715C10.0745 19.95 9.97461 20.1303 9.92872 20.2909C9.88113 20.4575 9.85881 20.5991 9.85881 20.7863C9.85881 21.0652 9.85881 21.3442 9.85881 21.6232C9.85881 21.8412 9.92579 21.9736 9.99464 22.1725C10.1441 22.6042 10.4436 22.8362 10.8576 22.9795C11.0177 23.0349 11.1975 23.0689 11.3529 23.1133C11.3938 23.125 11.4937 23.2224 11.4228 23.1673C11.273 23.0508 11.1841 22.8661 11.0813 22.7118C10.9185 22.4677 10.8045 21.9857 10.7577 21.6931C10.6877 21.2556 10.5779 20.8581 10.5779 20.4107C10.5779 19.941 10.6139 19.4653 10.6139 19.0005C10.6139 18.8679 9.65295 19.3662 9.49926 19.5199C9.37717 19.642 9.10376 19.8388 9.10376 20.0232C9.10376 20.3935 8.9732 20.7745 8.95994 21.1458C8.94838 21.4696 8.90654 21.7056 9.01188 22.0367C9.11332 22.3555 9.29541 22.6957 9.53522 22.9356" stroke="#3E35A4" stroke-width="2" stroke-linecap="round"/>
<path d="M11.6943 19.8825C11.6812 19.9872 11.5706 20.0723 11.5706 20.184C11.5706 20.3074 11.5397 20.402 11.5397 20.5242C11.5397 20.6479 11.5397 20.7716 11.5397 20.8953C11.5397 21.063 11.5655 21.2007 11.6007 21.3591C11.6627 21.6383 11.7554 21.9151 11.8833 22.1709C11.9107 22.2258 11.9488 22.271 11.976 22.3255C12.0055 22.3844 12.0369 22.4616 12.0808 22.511C12.1647 22.6054 12.2246 22.7298 12.3437 22.7893" stroke="#434242" stroke-width="0.1" stroke-linecap="round"/>
<path d="M11.6634 20.8257C11.6634 20.9823 11.6361 21.1208 11.678 21.2672C11.7156 21.3991 11.7503 21.5202 11.7879 21.652C11.7974 21.6852 11.8762 21.8464 11.8489 21.7371C11.8254 21.6429 11.762 21.5587 11.7561 21.4596C11.7523 21.3947 11.7101 21.318 11.6951 21.2509C11.6822 21.1928 11.6857 21.0662 11.6513 21.0232C11.6227 20.9874 11.617 20.8714 11.617 20.8257C11.617 20.7922 11.617 20.7587 11.617 20.7252C11.617 20.6865 11.6168 20.742 11.617 20.7518C11.6184 20.8136 11.6411 20.8725 11.6479 20.9339C11.6658 21.0948 11.6859 21.2938 11.7527 21.4441C11.7752 21.4948 11.7668 21.5543 11.7939 21.6048C11.8132 21.6405 11.8269 21.698 11.8326 21.7379C11.8601 21.9306 11.928 22.1195 12.0156 22.2945C12.0817 22.4268 12.2162 22.5189 12.2818 22.6502" stroke="#434242" stroke-width="0.1" stroke-linecap="round"/>
<path d="M11.6788 19.6042C11.6428 19.6402 11.5847 19.7055 11.5715 19.7519C11.5561 19.8058 11.5435 19.8881 11.5165 19.9366C11.484 19.9951 11.4789 20.0758 11.4615 20.1368C11.4458 20.1918 11.416 20.2646 11.416 20.3232C11.416 20.3946 11.3851 20.455 11.3851 20.5242C11.3851 20.5817 11.3848 20.6835 11.3687 20.7398C11.3509 20.8021 11.3541 20.8718 11.3541 20.9416C11.3541 21.0096 11.4005 21.0796 11.4005 21.1426C11.4005 21.1527 11.4137 21.2171 11.4194 21.2242C11.4406 21.2507 11.4157 21.293 11.4349 21.317C11.4601 21.3485 11.4754 21.4623 11.4778 21.506C11.4815 21.5728 11.5323 21.6445 11.5397 21.707C11.5475 21.7736 11.5886 21.8455 11.629 21.896C11.6721 21.9499 11.7082 22.0288 11.7441 22.0935C11.7799 22.158 11.8337 22.2272 11.8609 22.298C11.9158 22.4406 12.0254 22.4865 12.1272 22.5883" stroke="#434242" stroke-width="0.1" stroke-linecap="round"/>
<path d="M11.5861 19.9444C11.5861 20.0328 11.529 20.1103 11.5242 20.1917C11.5196 20.2707 11.4778 20.3555 11.4778 20.4314C11.4778 20.5239 11.4469 20.6137 11.4469 20.7097C11.4469 20.8077 11.4413 20.9157 11.4469 21.0112C11.4521 21.0987 11.5088 21.1791 11.5088 21.2741C11.5088 21.3622 11.5363 21.4843 11.5783 21.5601C11.6269 21.6476 11.6741 21.7745 11.6952 21.8693C11.7028 21.9036 11.7716 22.0028 11.7716 21.9157C11.7716 21.8363 11.7913 21.68 11.6943 21.6606" stroke="#434242" stroke-width="0.1" stroke-linecap="round"/>
<path d="M11.6788 19.5887C11.6776 19.5983 11.568 19.6642 11.5706 19.6197C11.5728 19.5823 11.6898 19.5525 11.6015 19.6076C11.5192 19.6591 11.4637 19.7867 11.428 19.867C11.3877 19.9577 11.3137 20.0591 11.3078 20.1608C11.3043 20.2202 11.2647 20.2749 11.2614 20.3309C11.2597 20.359 11.2261 20.5601 11.2227 20.5628C11.1843 20.5936 11.2457 20.7022 11.2073 20.7329C11.1815 20.7535 11.1995 20.8773 11.1995 20.9107C11.1995 20.9754 11.2305 21.0347 11.2305 21.0963C11.2305 21.1566 11.2923 21.209 11.2923 21.2663C11.2923 21.3191 11.3387 21.3712 11.3387 21.421C11.3387 21.4854 11.3785 21.5623 11.4005 21.6228C11.4382 21.7265 11.4855 21.8045 11.5397 21.8994C11.5615 21.9376 11.6325 21.9853 11.6325 22.0317" stroke="#434242" stroke-width="0.1" stroke-linecap="round"/>
<path d="M11.4314 20.0062C11.4314 20.1634 11.3232 20.2912 11.3232 20.4391C11.3232 20.6143 11.3077 20.8002 11.3077 20.9803C11.3077 21.0835 11.328 21.1572 11.3696 21.2509C11.3817 21.2782 11.4186 21.3349 11.4392 21.3514C11.479 21.3832 11.4681 21.439 11.4967 21.4716C11.5723 21.558 11.3653 21.2834 11.3 21.189C11.2309 21.0892 11.2304 20.9733 11.2304 20.8566" stroke="#434242" stroke-width="0.1" stroke-linecap="round"/>
<path d="M11.5266 19.8207C11.5266 19.8672 11.4866 19.8949 11.4657 19.9316C11.4531 19.9537 11.4352 19.9681 11.4352 19.9345C11.4352 19.9074 11.4486 19.8899 11.4733 19.8816" stroke="#434242" stroke-width="0.1" stroke-linecap="round"/>
<path d="M11.2752 20.6054C11.2752 20.6714 11.2623 20.7196 11.2431 20.7823C11.2313 20.8204 11.2286 20.8477 11.2295 20.889C11.231 20.9527 11.2828 21.0104 11.2828 21.0739C11.2828 21.1321 11.2981 21.1993 11.3095 21.2563C11.3219 21.3184 11.3335 21.386 11.3607 21.4434C11.3955 21.5168 11.4324 21.5901 11.4695 21.6643C11.483 21.6915 11.5236 21.7519 11.5529 21.7625C11.5789 21.772 11.593 21.5765 11.5994 21.5534C11.6121 21.5083 11.62 21.4743 11.6447 21.4358C11.6791 21.3823 11.7046 21.4533 11.7213 21.4857C11.7391 21.5203 11.7399 21.5387 11.7399 21.5788C11.7399 21.5982 11.7423 21.6057 11.734 21.5822C11.7135 21.5243 11.6826 21.4732 11.6676 21.4129C11.6475 21.3328 11.6471 21.2409 11.6405 21.1581C11.6371 21.1157 11.6137 21.0843 11.5952 21.0473" stroke="#434242" stroke-width="0.1" stroke-linecap="round"/>
<path d="M11.2676 20.5901C11.251 20.6067 11.2232 20.636 11.2219 20.6587C11.2213 20.6692 11.1914 20.7463 11.1914 20.7082C11.1914 20.6821 11.2143 20.6147 11.2143 20.6782C11.2143 20.7188 11.1957 20.7498 11.1914 20.7882C11.1842 20.8537 11.1609 20.9166 11.1609 20.9825C11.1609 21.0483 11.174 21.1178 11.1918 21.1801C11.2051 21.2266 11.2197 21.3073 11.2507 21.3461C11.2584 21.3557 11.2813 21.4078 11.2828 21.4206C11.2872 21.4572 11.3186 21.4904 11.3281 21.5238C11.3436 21.5781 11.377 21.6275 11.403 21.6796C11.4333 21.74 11.4909 21.7933 11.5114 21.8548" stroke="#434242" stroke-width="0.1" stroke-linecap="round"/>
<path d="M11.3895 21.6415C11.3905 21.6416 11.4492 21.7308 11.4504 21.7405C11.4521 21.7538 11.4757 21.78 11.4826 21.7939C11.4933 21.8152 11.5062 21.8337 11.5173 21.8548C11.5368 21.8916 11.5669 21.9374 11.5969 21.9674C11.6124 21.9829 11.6146 22.0124 11.6333 22.0241C11.6536 22.0368 11.6735 22.0878 11.6908 22.11C11.7455 22.1802 11.8107 22.238 11.8652 22.3081C11.8906 22.3408 11.9274 22.3823 11.9643 22.4033C11.976 22.41 11.9999 22.4339 12.0066 22.4456C12.0171 22.464 12.0707 22.5186 12.0904 22.5252" stroke="#434242" stroke-width="0.1" stroke-linecap="round"/>
<path d="M12.418 22.8757C12.3872 22.8757 12.3393 22.8202 12.3113 22.8054C12.2676 22.7823 12.2395 22.7347 12.197 22.7097C12.1572 22.6863 12.1316 22.6393 12.0997 22.6073C12.0814 22.589 12.0527 22.5697 12.0387 22.5481C12.0279 22.5314 12.0038 22.5078 11.9875 22.4947C11.9516 22.466 11.9317 22.42 11.8961 22.3923C11.8546 22.36 11.8311 22.3209 11.7975 22.2776C11.7663 22.2375 11.7279 22.2094 11.7018 22.1638C11.6793 22.1244 11.6333 22.0548 11.6333 22.0072" stroke="#434242" stroke-width="0.1" stroke-linecap="round"/>
<path d="M11.2219 21.1615C11.2201 21.1759 11.2 21.1823 11.199 21.1996C11.1981 21.216 11.1948 21.2423 11.2028 21.2568C11.2158 21.2801 11.2119 21.3272 11.2333 21.3444C11.24 21.3497 11.274 21.4182 11.2752 21.4282C11.2785 21.4542 11.2963 21.4946 11.3074 21.5196C11.3227 21.5542 11.334 21.5924 11.3514 21.6229C11.3665 21.6493 11.3779 21.6992 11.4009 21.7177C11.4475 21.755 11.4532 21.8458 11.4945 21.887C11.5155 21.908 11.527 21.9464 11.5419 21.9725C11.5605 22.0051 11.5915 22.0307 11.6104 22.0639C11.6408 22.1171 11.6866 22.2007 11.7399 22.234C11.7667 22.2508 11.7726 22.2923 11.7971 22.3119C11.8225 22.3322 11.848 22.3527 11.8733 22.3728C11.9332 22.4208 11.989 22.4638 12.0675 22.4795" stroke="#434242" stroke-width="0.1" stroke-linecap="round"/>
<path d="M11.6714 19.5388C11.6442 19.5388 11.6474 19.5596 11.6405 19.5354C11.638 19.5268 11.6061 19.5592 11.6028 19.5651C11.588 19.5909 11.5604 19.6075 11.5457 19.634C11.5097 19.6988 11.4566 19.7599 11.42 19.8241C11.4037 19.8525 11.3748 19.8897 11.3531 19.9138C11.3285 19.9412 11.3262 19.9893 11.304 20.0171C11.283 20.0433 11.2826 20.0847 11.26 20.1102C11.2403 20.1323 11.2177 20.1956 11.2143 20.2245C11.2051 20.3022 11.1457 20.3737 11.1457 20.4568C11.1457 20.4743 11.1393 20.5725 11.1267 20.5825C11.1112 20.5949 11.1228 20.6799 11.1228 20.7006C11.1228 20.8729 11.1378 21.031 11.1914 21.192" stroke="#434242" stroke-width="0.1" stroke-linecap="round"/>
<path d="M7.86217 20.6282C7.86217 20.6985 7.81899 20.7734 7.79784 20.8399C7.78115 20.8923 7.77075 20.9464 7.77075 21.0015C7.77075 21.0748 7.77158 21.1433 7.78599 21.2153C7.79665 21.2686 7.80884 21.3314 7.80884 21.3858C7.80884 21.4966 7.82965 21.6111 7.85286 21.7194C7.87393 21.8177 7.88994 21.922 7.92143 22.0165C7.93288 22.0508 7.93875 22.0832 7.9464 22.1176C7.95338 22.149 7.96319 22.1278 7.96079 22.1062C7.95844 22.0851 7.94674 22.0679 7.93836 22.0491C7.91236 21.9906 7.88503 21.9193 7.88503 21.8544C7.88503 21.8027 7.86627 21.7373 7.85074 21.6876C7.83022 21.622 7.82408 21.558 7.82408 21.4891C7.82408 21.4339 7.82689 21.3805 7.83128 21.3257C7.83404 21.2912 7.84694 21.2577 7.84694 21.2229C7.84694 21.2078 7.85455 21.198 7.85455 21.1814C7.85455 21.1637 7.85105 21.2182 7.85836 21.2343C7.88101 21.2841 7.86217 21.3812 7.86217 21.4358C7.86217 21.5081 7.88861 21.5764 7.89265 21.6491C7.9009 21.7977 7.94402 21.9355 7.97602 22.0795C7.98787 22.1328 7.98571 22.2244 8.02047 22.2679C8.03038 22.2803 8.03642 22.3334 8.03739 22.35C8.03862 22.3708 8.05312 22.4063 8.06194 22.4262C8.08784 22.4844 8.09031 22.5582 8.1195 22.6166C8.14095 22.6595 8.13328 22.737 8.18214 22.7614" stroke="#434242" stroke-width="0.1" stroke-linecap="round"/>
<path d="M8.22786 19.7064C8.22786 19.7713 8.15522 19.8214 8.15168 19.8816C8.15008 19.9089 8.12694 19.9339 8.12078 19.9616C8.11791 19.9745 8.11385 19.9918 8.10766 20.0035C8.10255 20.0132 8.10219 20.033 8.09665 20.0399C8.08645 20.0527 8.07549 20.1038 8.07549 20.1216C8.07549 20.1394 8.07613 20.1939 8.06618 20.2075C8.05221 20.2267 8.05264 20.2797 8.05264 20.3045C8.05264 20.3369 8.0374 20.3665 8.0374 20.3997C8.0374 20.5241 8.00693 20.6433 8.00693 20.7692C8.00693 20.9205 8.01455 21.0719 8.01455 21.2225" stroke="#3E35A4" stroke-width="0.1" stroke-linecap="round"/>
<path d="M8.00692 20.8263C8.00692 20.918 7.97645 21.0092 7.97645 21.1006C7.97645 21.1949 7.96121 21.2861 7.96121 21.3825C7.96121 21.4307 7.96121 21.479 7.96121 21.5272C7.96121 21.5686 7.96116 21.6261 7.97814 21.6643C7.99792 21.7088 7.99473 21.758 8.00862 21.8032C8.02566 21.8586 8.02978 21.9264 8.02978 21.9843" stroke="#3E35A4" stroke-width="0.1" stroke-linecap="round"/>
<path d="M8.00693 21.6415C8.00693 21.724 8.00693 21.8066 8.00693 21.8891C8.00693 21.9759 8.05264 22.0512 8.05264 22.1367C8.05264 22.1824 8.07138 22.2379 8.08692 22.2814C8.09264 22.2975 8.09835 22.3224 8.09835 22.3386C8.09835 22.3512 8.103 22.3873 8.10978 22.3995C8.12253 22.4225 8.12447 22.4572 8.13051 22.4829C8.13926 22.5201 8.15563 22.5553 8.15929 22.5938C8.16284 22.631 8.18213 22.703 8.22024 22.7157" stroke="#3E35A4" stroke-width="0.1" stroke-linecap="round"/>
<path d="M8.22025 22.609C8.22025 22.6484 8.22025 22.6877 8.22025 22.7271C8.22025 22.7654 8.25647 22.7888 8.25834 22.8223C8.25973 22.8475 8.28494 22.8984 8.29981 22.9176C8.32028 22.9439 8.33014 22.9834 8.34976 23.0128" stroke="#3E35A4" stroke-width="0.1" stroke-linecap="round"/>
<path d="M8.1974 19.7598C8.1974 19.802 8.16401 19.866 8.14577 19.9045C8.12716 19.9438 8.10069 19.9873 8.09117 20.0302C8.08166 20.073 8.05981 20.1119 8.04504 20.1525C8.02408 20.2101 8.01764 20.2766 7.9934 20.3311C7.97461 20.3734 7.98648 20.4305 7.98409 20.4759C7.98168 20.5217 7.97647 20.5693 7.97647 20.6172C7.97647 20.6677 7.97647 20.7183 7.97647 20.7688C7.97647 20.8424 7.99933 20.9177 7.99933 20.9939" stroke="#3E35A4" stroke-width="0.1" stroke-linecap="round"/>
<path d="M8.01454 20.5444C8.01454 20.5436 8.00429 20.5773 8.00099 20.5902C7.99402 20.6173 7.98194 20.6435 7.97602 20.6701C7.96703 20.7106 7.95359 20.7554 7.95359 20.7975C7.95359 20.8405 7.93835 20.8871 7.93835 20.9292C7.93835 20.9914 7.93835 21.0536 7.93835 21.1158C7.93835 21.2123 7.93835 21.3088 7.93835 21.4053C7.93835 21.4537 7.94105 21.5184 7.96502 21.5615C7.99693 21.6189 7.98683 21.6955 8.00692 21.7558" stroke="#3E35A4" stroke-width="0.1" stroke-linecap="round"/>
<path d="M8.27359 19.5693C8.23814 19.5737 8.22015 19.6228 8.20333 19.6438C8.18214 19.6703 8.16822 19.7152 8.15889 19.7479C8.13452 19.8332 8.11325 19.9323 8.07382 20.0112C8.0351 20.0886 8.00758 20.1818 7.99213 20.2668C7.97798 20.3446 7.98409 20.431 7.98409 20.5102C7.98409 20.5914 7.99814 20.6895 7.97647 20.7654" stroke="#3E35A4" stroke-width="0.1" stroke-linecap="round"/>
<path d="M8.02215 20.3616C8.02215 20.3888 8.00158 20.4422 7.98999 20.4683C7.97803 20.4952 7.95589 20.5391 7.95359 20.569C7.95051 20.609 7.93835 20.6404 7.93835 20.6816C7.93835 20.7008 7.94063 20.7873 7.92904 20.8018C7.91186 20.8233 7.92312 20.8879 7.92312 20.9161C7.92312 20.9645 7.93577 21.0084 7.93835 21.0549C7.94585 21.1899 7.93564 21.3259 7.96883 21.4586" stroke="#3E35A4" stroke-width="0.1" stroke-linecap="round"/>
<path d="M9.46203 18.2437C9.4321 18.247 9.38435 18.2921 9.36468 18.3139C9.3442 18.3367 9.30782 18.3552 9.29273 18.3808C9.24798 18.4569 9.16172 18.5135 9.10016 18.5751C9.04006 18.6352 8.98344 18.6993 8.91732 18.7507C8.9057 18.7598 8.90783 18.7745 8.89827 18.7846C8.88909 18.7943 8.87705 18.801 8.8678 18.8108C8.85283 18.8267 8.83916 18.8405 8.82632 18.857C8.8053 18.884 8.77981 18.9089 8.76114 18.937" stroke="#3E35A4" stroke-width="0.1" stroke-linecap="round"/>
<path d="M9.27158 18.3656C9.24069 18.3725 9.21539 18.4388 9.1937 18.4629C9.17664 18.4819 9.15946 18.4995 9.14207 18.518C9.12498 18.536 9.1064 18.5536 9.08874 18.5713C9.06589 18.5941 9.03109 18.6214 9.01425 18.6475C8.99769 18.6731 8.95923 18.6944 8.93637 18.716C8.8976 18.7528 8.86478 18.7938 8.82802 18.832C8.79438 18.8669 8.7565 18.8941 8.72306 18.9293C8.70512 18.9482 8.69013 19.0055 8.66211 19.0055" stroke="#3E35A4" stroke-width="0.1" stroke-linecap="round"/>
<path d="M11.839 19.3712C11.8059 19.3712 11.775 19.3882 11.7446 19.4017C11.7247 19.4105 11.6964 19.4182 11.6807 19.4339C11.6371 19.4774 11.5478 19.4797 11.5131 19.5388C11.4842 19.5879 11.422 19.6258 11.3819 19.6683C11.3533 19.6986 11.3369 19.7354 11.3133 19.7708C11.2314 19.8936 11.1537 20.0161 11.0847 20.1483" stroke="#3E35A4" stroke-width="0.1" stroke-linecap="round"/>
</svg>
