<?xml version="1.0" standalone="no"?>
<!DOCTYPE svg PUBLIC "-//W3C//DTD SVG 20010904//EN"
 "http://www.w3.org/TR/2001/REC-SVG-20010904/DTD/svg10.dtd">
<svg version="1.0" xmlns="http://www.w3.org/2000/svg"
 width="256.000000pt" height="256.000000pt" viewBox="0 0 256.000000 256.000000"
 preserveAspectRatio="xMidYMid meet">

<g transform="translate(0.000000,256.000000) scale(0.100000,-0.100000)"
fill="#000000" stroke="none">
<path d="M1197 2030 c-331 -84 -383 -532 -79 -682 61 -30 74 -33 162 -33 88 0
101 3 162 33 273 134 268 524 -9 654 -68 32 -170 44 -236 28z m201 -126 c199
-99 183 -396 -25 -474 -68 -25 -118 -25 -186 0 -131 49 -198 196 -152 331 49
144 223 213 363 143z"/>
<path d="M1122 1190 c-214 -56 -387 -222 -450 -430 -11 -36 -23 -91 -27 -124
-6 -55 -5 -60 21 -87 l28 -29 586 0 586 0 28 29 c26 27 27 32 21 87 -34 272
-221 488 -481 554 -98 25 -215 25 -312 0z m324 -110 c187 -65 324 -221 359
-412 l7 -38 -532 0 -532 0 7 38 c40 218 214 390 435 432 65 13 189 3 256 -20z"/>
</g>
</svg>
