<svg width="32" height="15" viewBox="0 0 32 15" fill="none" xmlns="http://www.w3.org/2000/svg">
<path d="M9.86524 10.6309L9.85891 9.69507C9.85891 9.69507 9.84615 7.47003 15.9194 7.50702C21.9927 7.54402 22.0055 9.76907 22.0055 9.76907L22.0108 10.3586C22.0187 11.8107 23.1232 13.0521 24.6102 13.2788L27.6473 13.7419C29.4883 14.0223 31.1352 12.6561 31.1242 10.8577L31.1055 7.632C31.0986 6.74052 30.8145 5.86408 30.134 5.2551C28.3918 3.69675 24.1094 0.881014 15.8791 0.82981C7.15099 0.77723 2.90613 4.67269 1.40038 6.49456C0.92327 7.0715 0.738141 7.80152 0.74378 8.54459L0.761734 11.4632C0.772216 13.4347 2.74818 14.8592 4.69601 14.2985L7.72725 13.4281C9.0049 13.0593 9.87274 11.9253 9.86524 10.6309Z" fill="#F3D9D9"/>
</svg>
